# xmcd
#
# Track frame offsets: 
#        150
#        19755
#        37662
#        52210
#        55677
#        79377
#        95377
#        117342
#        129520
#        143765
#        159242
#        162182
#        182337
#        183987
#
# Disc length: 2641 seconds
#
# Revision: 0
# Processed by: cddbd v1.5.2PL0 Copyright (c) Steve Scherf et al.
# Submitted via: ExactAudioCopy v0.99pb5
#
DISCID=ab0a4f0e
DTITLE=Rey-Nicholas Shovelhead Band - Music From The Canyon
DYEAR=1999
DGENRE=Blues
TTITLE0=It Must Be Love
TTITLE1=Looking For My Baby
TTITLE2=Takin' Care Of Business
TTITLE3=Red Truck (Instrumental)
TTITLE4=Can't Let Go
TTITLE5=Baby's Back Home Tonight
TTITLE6=Hug You Squeeze You
TTITLE7=Rockin' Candy Daddy
TTITLE8=It's Too Bad
TTITLE9=Built For Comfort
TTITLE10=The Sky Cries (Instrumental)
TTITLE11=Foolin' With Me
TTITLE12=The Sky Cries (Reprise)
TTITLE13=Key To The Highway
EXTD=
EXTT0=
EXTT1=
EXTT2=
EXTT3=
EXTT4=
EXTT5=
EXTT6=
EXTT7=
EXTT8=
EXTT9=
EXTT10=
EXTT11=
EXTT12=
EXTT13=
PLAYORDER=
